<?xml version="1.0" encoding="utf-8"?>
<!-- Generator: Adobe Illustrator 28.0.0, SVG Export Plug-In . SVG Version: 6.00 Build 0)  -->
<svg version="1.1" id="Calque_1" xmlns="http://www.w3.org/2000/svg" xmlns:xlink="http://www.w3.org/1999/xlink" x="0px" y="0px"
	 viewBox="0 0 50 50" style="enable-background:new 0 0 50 50;" xml:space="preserve">
<style type="text/css">
	.st0{fill:none;stroke:#46556C;stroke-miterlimit:10;}
</style>
<polygon class="st0" points="33.75,33.75 16.25,33.75 16.25,16.25 33.75,16.25 33.75,25 "/>
<line class="st0" x1="38.75" y1="25" x2="33.75" y2="25"/>
<line class="st0" x1="38.75" y1="20" x2="33.75" y2="20"/>
<line class="st0" x1="38.75" y1="30" x2="33.75" y2="30"/>
<line class="st0" x1="30" y1="11.25" x2="30" y2="16.25"/>
<line class="st0" x1="25" y1="11.25" x2="25" y2="16.25"/>
<line class="st0" x1="20" y1="11.25" x2="20" y2="16.25"/>
<line class="st0" x1="11.25" y1="20" x2="16.25" y2="20"/>
<line class="st0" x1="11.25" y1="25" x2="16.25" y2="25"/>
<line class="st0" x1="11.25" y1="30" x2="16.25" y2="30"/>
<line class="st0" x1="20" y1="38.75" x2="20" y2="33.75"/>
<line class="st0" x1="25" y1="38.75" x2="25" y2="33.75"/>
<line class="st0" x1="30" y1="38.75" x2="30" y2="33.75"/>
</svg>
